<?xml version="1.0" standalone="no"?>
<!DOCTYPE svg PUBLIC "-//W3C//DTD SVG 20010904//EN"
 "http://www.w3.org/TR/2001/REC-SVG-20010904/DTD/svg10.dtd">
<svg version="1.0" xmlns="http://www.w3.org/2000/svg"
 width="800.000000pt" height="800.000000pt" viewBox="0 0 800.000000 800.000000"
 preserveAspectRatio="xMidYMid meet">
<metadata>
Created by potrace 1.14, written by Peter Selinger 2001-2017
</metadata>
<g transform="translate(0.000000,800.000000) scale(0.100000,-0.100000)"
fill="#000000" stroke="none">
<path d="M5149 7095 c-179 -25 -375 -95 -556 -201 -54 -31 -165 -96 -248 -144
-82 -48 -269 -156 -415 -242 -146 -85 -434 -253 -640 -373 -206 -120 -456
-265 -555 -323 -99 -58 -385 -224 -635 -370 -649 -377 -677 -394 -755 -453
-473 -357 -685 -1002 -520 -1576 68 -237 160 -395 379 -651 302 -353 528 -622
766 -912 305 -372 523 -556 856 -723 199 -100 410 -168 646 -209 115 -20 166
-23 373 -23 254 1 333 10 536 61 165 41 285 88 619 244 179 84 352 165 385
180 194 90 731 354 913 449 280 146 362 201 502 341 256 255 397 555 431 913
12 136 4 282 -26 457 -18 99 -124 750 -189 1155 -25 154 -52 318 -61 365 -8
47 -40 240 -70 430 -31 190 -65 390 -77 445 -69 334 -250 630 -516 847 -311
255 -730 369 -1143 313z m491 -320 c122 -31 315 -120 405 -187 201 -149 335
-331 414 -564 31 -90 47 -179 146 -789 24 -154 51 -316 59 -360 8 -44 18 -100
21 -125 3 -25 12 -79 20 -120 8 -41 30 -178 50 -305 20 -126 63 -389 96 -583
68 -408 76 -496 60 -645 -36 -326 -203 -615 -473 -814 -110 -82 -933 -495
-1682 -845 -189 -88 -220 -100 -365 -142 -385 -112 -826 -100 -1199 33 -283
101 -505 238 -716 441 -88 85 -177 188 -465 539 -134 162 -464 552 -594 701
-177 202 -251 332 -304 539 -30 119 -41 308 -24 434 45 334 235 634 517 816
55 35 713 421 1464 858 751 438 1446 843 1545 901 272 159 381 205 565 238
119 21 331 12 460 -21z"/>
<path d="M4235 4223 c-93 -197 -238 -504 -322 -682 -84 -178 -153 -330 -153
-337 0 -11 19 -14 78 -14 l78 0 96 208 c53 114 192 412 308 662 117 250 218
470 226 488 l14 32 -78 0 -79 0 -168 -357z"/>
<path d="M3110 4200 c-272 -115 -507 -216 -521 -224 -56 -33 -60 -109 -8 -148
24 -18 972 -423 1018 -435 l24 -6 -6 83 c-4 46 -8 84 -10 86 -2 2 -192 78
-422 169 -231 91 -421 168 -423 170 -5 5 0 7 454 185 214 84 390 153 390 154
6 7 13 176 7 175 -4 0 -231 -94 -503 -209z"/>
<path d="M4700 4322 l0 -87 178 -69 c97 -38 291 -114 430 -169 l254 -100 -174
-68 c-95 -38 -289 -115 -430 -171 l-258 -101 0 -85 c0 -76 2 -84 18 -79 9 2
238 98 507 212 520 219 545 233 545 295 0 63 8 59 -972 468 l-98 41 0 -87z"/>
</g>
</svg>
