<?xml version="1.0" standalone="no"?>
<!DOCTYPE svg PUBLIC "-//W3C//DTD SVG 20010904//EN"
 "http://www.w3.org/TR/2001/REC-SVG-20010904/DTD/svg10.dtd">
<svg version="1.0" xmlns="http://www.w3.org/2000/svg"
 width="1061.000000pt" height="1064.000000pt" viewBox="0 0 1061.000000 1064.000000"
 preserveAspectRatio="xMidYMid meet">

<g transform="translate(0.000000,1064.000000) scale(0.100000,-0.100000)"
fill="#E5E5DC" stroke="none">
<path d="M7165 10024 c-285 -30 -553 -107 -792 -228 -97 -49 -92 -46 -488
-276 -154 -90 -347 -202 -430 -250 -82 -48 -195 -114 -250 -147 -55 -32 -188
-110 -295 -172 -107 -62 -247 -144 -310 -181 -63 -37 -214 -125 -335 -195
-222 -128 -346 -201 -575 -335 -69 -40 -140 -81 -158 -92 -47 -26 -325 -188
-462 -268 -63 -37 -225 -132 -360 -210 -135 -79 -297 -173 -360 -210 -63 -37
-160 -94 -215 -125 -838 -485 -866 -504 -1090 -729 -306 -308 -527 -735 -599
-1153 -8 -49 -22 -129 -30 -179 -20 -116 -20 -317 -1 -448 8 -55 20 -132 25
-171 14 -93 73 -304 116 -418 82 -214 245 -483 401 -663 175 -202 363 -421
449 -525 321 -383 406 -484 473 -563 42 -48 90 -105 106 -126 444 -552 605
-731 840 -931 427 -365 956 -625 1510 -744 277 -60 366 -68 705 -69 342 -1
419 6 665 55 181 37 278 63 454 124 174 61 162 55 981 437 36 17 128 61 205
97 77 37 230 109 340 161 257 121 1151 568 1318 660 397 216 670 476 890 845
197 331 307 732 307 1121 0 143 -20 349 -55 553 -13 80 -36 218 -50 306 -27
171 -35 215 -65 395 -11 63 -27 158 -36 210 -8 52 -26 160 -39 240 -34 200
-104 636 -111 685 -3 22 -14 85 -24 140 -10 55 -21 123 -25 150 -3 28 -19 127
-35 220 -37 217 -65 390 -95 585 -14 85 -29 175 -34 201 -6 26 -20 111 -31
190 -87 591 -289 1018 -655 1384 -314 315 -726 534 -1145 610 -52 9 -115 21
-140 26 -49 10 -430 20 -495 13z m430 -465 c214 -25 457 -110 681 -239 201
-116 437 -344 566 -546 153 -240 221 -447 288 -874 50 -320 90 -564 95 -580 2
-8 11 -62 20 -120 8 -58 29 -186 45 -285 17 -99 42 -245 55 -325 14 -80 32
-192 40 -250 9 -58 22 -139 31 -180 13 -69 31 -179 84 -520 11 -69 29 -179 40
-245 29 -166 67 -401 96 -585 13 -85 30 -184 38 -220 45 -198 56 -506 26 -725
-21 -155 -87 -360 -166 -518 -142 -283 -392 -550 -664 -710 -159 -94 -1196
-615 -1622 -816 -46 -21 -163 -78 -262 -125 -98 -47 -179 -86 -181 -86 -2 0
-75 -34 -162 -76 -256 -123 -433 -204 -508 -233 -157 -60 -364 -117 -501 -137
-60 -9 -118 -20 -129 -24 -77 -31 -604 -41 -790 -15 -264 35 -430 74 -650 152
-322 113 -628 285 -888 497 -189 154 -362 336 -587 616 -258 320 -815 984
-1120 1334 -254 292 -262 302 -324 401 -182 289 -265 580 -267 938 -3 444 165
876 465 1193 156 166 269 249 591 434 99 57 266 154 370 215 105 61 210 123
235 137 25 13 97 55 160 93 117 68 250 146 510 297 80 47 213 124 295 172 83
48 197 115 255 149 58 33 166 97 240 140 74 44 164 96 200 117 36 21 171 100
300 176 278 162 402 234 406 234 1 0 42 24 91 54 48 29 165 97 258 151 94 53
175 101 180 105 6 4 35 21 65 37 30 17 118 68 195 113 400 237 800 468 886
511 165 83 334 137 509 164 105 16 385 19 505 4z"/>
<path d="M5900 6182 c0 -5 -216 -467 -481 -1028 -265 -560 -483 -1027 -486
-1036 -5 -17 5 -18 118 -18 l124 0 477 1028 c263 566 480 1036 484 1045 5 15
-6 17 -115 17 -67 0 -121 -4 -121 -8z"/>
<path d="M3942 5617 c-430 -182 -777 -334 -797 -350 -66 -52 -66 -151 -1 -203
18 -15 60 -38 92 -51 32 -14 377 -160 767 -324 389 -164 709 -299 712 -299 3
0 5 56 5 125 0 108 -2 125 -17 134 -10 5 -299 120 -643 256 -344 136 -631 250
-638 254 -8 4 143 68 365 156 208 81 503 197 656 257 l277 110 0 129 c0 71 -3
129 -7 128 -5 -1 -351 -146 -771 -322z"/>
<path d="M6362 5808 l3 -131 643 -253 c354 -139 646 -255 648 -257 3 -3 -46
-25 -108 -49 -62 -25 -355 -141 -650 -258 l-538 -213 0 -128 0 -129 48 19 c26
11 373 157 772 326 478 202 734 315 753 333 58 55 57 139 -1 195 -24 24 -300
142 -1480 637 l-93 39 3 -131z"/>
</g>
</svg>
